<svg width="221" height="46" viewBox="0 0 221 46" fill="none" xmlns="http://www.w3.org/2000/svg">
<path d="M213.081 13.26C215.321 13.26 217.101 13.94 218.421 15.3C219.781 16.66 220.461 18.34 220.461 20.34C220.461 21.1 220.381 21.8 220.221 22.44C219.821 24.08 219.061 25.34 217.941 26.22C216.821 27.1 215.481 27.54 213.921 27.54C212.401 27.54 211.241 27.18 210.441 26.46C209.681 25.74 209.001 24.78 208.401 23.58C208.081 22.9 207.781 22.4 207.501 22.08C207.221 21.76 206.901 21.6 206.541 21.6C206.141 21.6 205.781 21.76 205.461 22.08C205.181 22.4 204.921 22.96 204.681 23.76L200.061 38.76C199.981 38.96 199.941 39.26 199.941 39.66C199.941 40.18 200.081 40.62 200.361 40.98C200.681 41.3 201.101 41.62 201.621 41.94C202.101 42.26 202.421 42.52 202.581 42.72C202.741 42.92 202.801 43.18 202.761 43.5C202.681 44.02 202.381 44.4 201.861 44.64C201.381 44.88 200.541 45 199.341 45H183.981C182.941 45 182.201 44.84 181.761 44.52C181.281 44.16 181.101 43.7 181.221 43.14C181.381 42.66 181.801 42.24 182.481 41.88C183.081 41.56 183.581 41.18 183.981 40.74C184.381 40.3 184.721 39.6 185.001 38.64L190.341 21.3C190.421 21.1 190.461 20.82 190.461 20.46C190.461 20.02 190.361 19.68 190.161 19.44C190.001 19.2 189.721 18.9 189.321 18.54C188.921 18.22 188.641 17.94 188.481 17.7C188.321 17.46 188.301 17.14 188.421 16.74C188.661 15.82 189.921 15.02 192.201 14.34C194.481 13.62 196.861 13.26 199.341 13.26C200.981 13.26 202.341 13.64 203.421 14.4C204.501 15.12 205.201 16.16 205.521 17.52C207.441 14.68 209.961 13.26 213.081 13.26Z" fill="#CCFF00"/>
<path d="M170.387 12.96C175.467 12.96 179.147 13.78 181.427 15.42C183.707 17.02 184.847 19.08 184.847 21.6C184.847 22.36 184.767 23.06 184.607 23.7C184.007 26.34 182.327 28.24 179.567 29.4C176.847 30.52 173.627 31.08 169.907 31.08C168.027 31.08 166.267 30.96 164.627 30.72C164.587 32.8 165.147 34.26 166.307 35.1C167.467 35.94 169.087 36.36 171.167 36.36C172.127 36.36 173.047 36.26 173.927 36.06C174.807 35.82 175.927 35.48 177.287 35.04C178.407 34.64 179.167 34.44 179.567 34.44C180.007 34.44 180.227 34.7 180.227 35.22C180.267 36.62 179.747 38.1 178.667 39.66C177.587 41.18 175.987 42.48 173.867 43.56C171.747 44.64 169.187 45.18 166.187 45.18C161.747 45.18 158.107 44.06 155.267 41.82C152.427 39.58 151.007 36.32 151.007 32.04C151.007 30.84 151.167 29.44 151.487 27.84C152.487 22.92 154.667 19.22 158.027 16.74C161.427 14.22 165.547 12.96 170.387 12.96ZM165.047 27.12C165.207 27.16 165.427 27.18 165.707 27.18C167.387 27.18 168.667 26.4 169.547 24.84C170.427 23.28 170.847 21.54 170.807 19.62C170.767 18.5 170.447 17.94 169.847 17.94C169.407 17.94 168.887 18.3 168.287 19.02C167.687 19.7 167.087 20.74 166.487 22.14C165.927 23.54 165.447 25.2 165.047 27.12Z" fill="#CCFF00"/>
<path d="M144.229 36.72C144.149 36.88 144.109 37.12 144.109 37.44C144.109 37.72 144.169 37.94 144.289 38.1C144.449 38.26 144.649 38.34 144.889 38.34C145.369 38.34 145.769 38.14 146.089 37.74C146.449 37.3 146.689 37.08 146.809 37.08C147.009 37.08 147.169 37.22 147.289 37.5C147.409 37.74 147.469 38.04 147.469 38.4C147.509 39.56 147.129 40.7 146.329 41.82C145.529 42.9 144.349 43.8 142.789 44.52C141.269 45.2 139.429 45.54 137.269 45.54C134.629 45.54 132.529 44.94 130.969 43.74C129.409 42.5 128.609 40.86 128.569 38.82C128.569 37.34 128.929 35.68 129.649 33.84L132.949 25.2C133.149 24.68 133.249 24.26 133.249 23.94C133.249 23.42 133.069 23.02 132.709 22.74C132.389 22.42 131.989 22.26 131.509 22.26C130.749 22.26 129.969 22.62 129.169 23.34C128.409 24.02 127.789 25.14 127.309 26.7V26.58L123.529 38.76C123.409 39.24 123.349 39.66 123.349 40.02C123.349 40.54 123.449 40.96 123.649 41.28C123.849 41.56 124.129 41.84 124.489 42.12C124.769 42.4 124.969 42.64 125.089 42.84C125.209 43 125.229 43.22 125.149 43.5C124.949 44.02 124.549 44.4 123.949 44.64C123.349 44.88 122.429 45 121.189 45H107.509C106.469 45 105.709 44.84 105.229 44.52C104.749 44.16 104.589 43.7 104.749 43.14C104.909 42.66 105.329 42.24 106.009 41.88C106.609 41.56 107.109 41.18 107.509 40.74C107.909 40.3 108.249 39.6 108.529 38.64L117.649 8.69997C117.769 8.33997 117.829 8.03997 117.829 7.79997C117.829 7.35997 117.709 6.99997 117.469 6.71997C117.269 6.43997 116.989 6.15997 116.629 5.87997C116.229 5.55997 115.929 5.27997 115.729 5.03997C115.569 4.79997 115.549 4.47997 115.669 4.07997C115.909 3.15997 117.169 2.35997 119.449 1.67997C121.729 0.999973 124.109 0.659973 126.589 0.659973C128.909 0.659973 130.609 1.09997 131.689 1.97997C132.809 2.85997 133.369 4.05997 133.369 5.57998C133.369 6.45997 133.229 7.31997 132.949 8.15997L129.709 18.72C131.269 16.68 132.909 15.26 134.629 14.46C136.389 13.66 138.289 13.26 140.329 13.26C142.769 13.26 144.729 14 146.209 15.48C147.729 16.96 148.489 18.88 148.489 21.24C148.489 22.48 148.289 23.7 147.889 24.9L144.229 36.72Z" fill="#CCFF00"/>
<path d="M108.488 14.04C109.248 14.04 109.828 14.2 110.228 14.52C110.668 14.84 110.888 15.28 110.888 15.84C110.888 16 110.848 16.28 110.768 16.68C110.248 18.44 109.048 19.32 107.168 19.32H103.688L99.188 34.14C98.988 34.74 98.888 35.36 98.888 36C98.888 36.72 99.088 37.22 99.488 37.5C99.888 37.78 100.448 37.92 101.168 37.92C101.808 37.92 102.608 37.84 103.568 37.68C104.048 37.56 104.468 37.5 104.828 37.5C105.108 37.5 105.308 37.6 105.428 37.8C105.588 37.96 105.668 38.18 105.668 38.46C105.708 39.26 105.108 40.24 103.868 41.4C102.668 42.52 101.028 43.5 98.948 44.34C96.868 45.14 94.568 45.54 92.048 45.54C89.328 45.54 87.148 44.92 85.508 43.68C83.868 42.44 83.048 40.74 83.048 38.58C83.048 37.58 83.208 36.62 83.528 35.7L87.368 23.82C87.568 23.14 87.668 22.6 87.668 22.2C87.668 21.4 87.468 20.72 87.068 20.16C86.708 19.6 86.188 19.02 85.508 18.42C84.908 17.86 84.488 17.4 84.248 17.04C84.008 16.64 83.948 16.18 84.068 15.66C84.228 15.14 84.568 14.74 85.088 14.46C85.608 14.18 86.428 14.04 87.548 14.04H90.908L94.688 10.26C96.008 8.93997 97.208 8.01997 98.288 7.49997C99.408 6.97997 100.848 6.71997 102.608 6.71997C105.128 6.71997 106.388 7.67997 106.388 9.59997C106.388 10.2 106.308 10.76 106.148 11.28L105.308 14.04H108.488Z" fill="#CCFF00"/>
<path d="M63.8302 13.26C68.4302 13.26 72.1102 14.12 74.8702 15.84C77.6302 17.52 79.0102 20.1 79.0102 23.58C79.0102 24.9 78.7702 26.4 78.2902 28.08L75.8302 36.36C75.7902 36.52 75.7702 36.72 75.7702 36.96C75.7702 37.6 76.0302 37.92 76.5502 37.92C77.0302 37.92 77.4302 37.72 77.7502 37.32C78.1102 36.88 78.3502 36.66 78.4702 36.66C78.6702 36.66 78.8302 36.8 78.9502 37.08C79.1102 37.36 79.1902 37.68 79.1902 38.04C79.2302 39.12 78.8102 40.22 77.9302 41.34C77.0902 42.46 75.9502 43.38 74.5102 44.1C73.0702 44.82 71.4902 45.18 69.7702 45.18C67.6902 45.18 65.9102 44.8 64.4302 44.04C62.9502 43.28 61.9302 42.16 61.3702 40.68C60.1702 42.12 58.7502 43.24 57.1102 44.04C55.4702 44.8 53.7102 45.18 51.8302 45.18C49.7102 45.18 47.9302 44.78 46.4902 43.98C45.0502 43.14 43.9702 42.08 43.2502 40.8C42.5702 39.48 42.2302 38.1 42.2302 36.66C42.2302 36.02 42.2902 35.4 42.4102 34.8C43.0502 32.04 44.4302 29.96 46.5502 28.56C48.7102 27.16 51.2702 26.46 54.2302 26.46C57.5502 26.46 60.8102 26.98 64.0102 28.02L65.5102 24.06C66.0302 22.38 66.2902 21.08 66.2902 20.16C66.2502 19.2 65.9302 18.48 65.3302 18C64.7302 17.52 63.8102 17.28 62.5702 17.28C62.8102 17.92 62.9302 18.58 62.9302 19.26C62.9302 20.74 62.3702 22.02 61.2502 23.1C60.1302 24.18 58.5302 24.72 56.4502 24.72C54.4902 24.72 52.9502 24.3 51.8302 23.46C50.7502 22.58 50.2102 21.5 50.2102 20.22C50.2102 18.22 51.3302 16.56 53.5702 15.24C55.8102 13.92 59.2302 13.26 63.8302 13.26ZM60.4702 31.44C59.3502 31.44 58.4302 31.88 57.7102 32.76C57.0302 33.6 56.6902 34.52 56.6902 35.52C56.6902 36.16 56.8302 36.68 57.1102 37.08C57.4302 37.48 57.8702 37.68 58.4302 37.68C58.9502 37.68 59.5102 37.48 60.1102 37.08C60.7502 36.64 61.2102 36 61.4902 35.16L62.7502 31.62C62.0702 31.5 61.3102 31.44 60.4702 31.44Z" fill="#CCFF00"/>
<path d="M14.76 45.36C12.08 45.36 9.63999 44.78 7.43999 43.62C5.27999 42.42 3.55999 40.68 2.27999 38.4C0.999985 36.08 0.359985 33.32 0.359985 30.12C0.359985 27.68 0.779985 24.96 1.61999 21.96C3.45999 15.56 6.33999 11.04 10.26 8.40001C14.22 5.76 18.44 4.44 22.92 4.44C27 4.44 30.68 5.92 33.96 8.88L35.76 7.14C36.76 6.3 37.62 5.72 38.34 5.4C39.06 5.08 39.9 4.92 40.86 4.92C41.9 4.92 42.74 5.18 43.38 5.7C44.02 6.18001 44.34 6.84001 44.34 7.68C44.34 8 44.28 8.38 44.16 8.82L42 16.38C41.6 17.66 41.12 18.56 40.56 19.08C40.04 19.6 39.32 19.86 38.4 19.86C37.44 19.86 36.58 19.62 35.82 19.14C35.1 18.66 34.26 17.8 33.3 16.56C32.02 14.88 30.88 13.7 29.88 13.02C28.92 12.3 27.86 11.94 26.7 11.94C24.9 11.94 23.18 12.86 21.54 14.7C19.94 16.5 18.54 19.52 17.34 23.76C16.58 26.52 16.2 28.9 16.2 30.9C16.2 33.02 16.6 34.64 17.4 35.76C18.24 36.84 19.4 37.38 20.88 37.38C22.16 37.38 23.14 37.08 23.82 36.48C24.54 35.88 25.1 34.84 25.5 33.36L25.92 31.86C26.12 31.06 26.22 30.52 26.22 30.24C26.22 29.76 26.1 29.42 25.86 29.22C25.66 29.02 25.3 28.8 24.78 28.56L22.68 27.78C21.76 27.42 21.3 26.76 21.3 25.8C21.3 25.52 21.32 25.3 21.36 25.14C21.52 24.62 21.8 24.24 22.2 24C22.64 23.76 23.3 23.64 24.18 23.64L42.3 23.7C43.62 23.7 44.28 24.12 44.28 24.96C44.28 25.12 44.24 25.36 44.16 25.68C44 26.28 43.74 26.76 43.38 27.12C43.02 27.48 42.5 27.84 41.82 28.2L40.26 29.1C39.86 29.34 39.56 29.58 39.36 29.82C39.16 30.02 39.02 30.28 38.94 30.6L35.76 41.7C35.36 43.02 34.9 43.9 34.38 44.34C33.9 44.78 33.3 45 32.58 45H30.06C29.1 45 28.3 44.8 27.66 44.4C27.06 44 26.56 43.22 26.16 42.06L25.56 40.32C22.68 43.68 19.08 45.36 14.76 45.36Z" fill="#CCFF00"/>
</svg>
